<svg xmlns="http://www.w3.org/2000/svg" viewBox="0 0 800 800"><defs><linearGradient id="bg" x1="0" y1="0" x2="1" y2="1"><stop offset="0" stop-color="#fbf3e6"/><stop offset="1" stop-color="#f1e2c8"/></linearGradient>
<radialGradient id="shadow" cx="0.5" cy="0.5" r="0.5"><stop offset="0" stop-color="#000" stop-opacity="0.18"/><stop offset="1" stop-color="#000" stop-opacity="0"/></radialGradient></defs>
<rect width="800" height="800" fill="url(#bg)"/><ellipse cx="400" cy="700" rx="230" ry="30" fill="url(#shadow)"/>
<path d="M300 170 L230 190 L120 290 L190 380 L250 340 L250 670 L550 670 L550 340 L610 380 L680 290 L570 190 L500 170 C480 225 320 225 300 170 Z" fill="#262b30" stroke="#14181b" stroke-width="6" stroke-linejoin="round"/>
<path d="M300 170 C320 225 480 225 500 170" fill="none" stroke="#3d454c" stroke-width="16" stroke-linecap="round"/>
<path d="M250 340 L250 300 M550 340 L550 300" stroke="#14181b" stroke-width="5" opacity="0.4"/>
<rect x="340" y="320" width="120" height="16" rx="8" fill="#3d454c" opacity="0.35"/></svg>
